<svg xmlns="http://www.w3.org/2000/svg" viewBox="0 0 389 197.54"><defs><style>.cls-1{fill:#fff;}.cls-2{fill:#0047ba;}.cls-3{fill:#ff7100;}.cls-4{fill:#ba2d8d;}.cls-5{fill:#ff125a;}.cls-6{fill:#933d97;}.cls-7{fill:#ffa700;}.cls-8{fill:#0070b3;}.cls-9{fill:#ff0879;}.cls-10{fill:#008a8a;}</style></defs><g id="Layer_2" data-name="Layer 2"><g id="RGB_LOGOS" data-name="RGB LOGOS"><path class="cls-1" d="M381.1,161.41,194.58,194.63,7.82,161.45a7.33,7.33,0,0,1-4.95-6.94v-144a7.6,7.6,0,0,1,7.6-7.6H378.54a7.59,7.59,0,0,1,7.59,7.6v144A7.32,7.32,0,0,1,381.1,161.41Z"/><path class="cls-2" d="M194.58,197.54,6.88,164.16A10.21,10.21,0,0,1,0,154.51v-144A10.49,10.49,0,0,1,10.47,0H378.54A10.48,10.48,0,0,1,389,10.47v144a10.21,10.21,0,0,1-7,9.7l-.4.1Zm-186-38.87,186,33,185.79-33.08a4.48,4.48,0,0,0,2.9-4.19v-144a4.74,4.74,0,0,0-4.73-4.73H10.47a4.73,4.73,0,0,0-4.73,4.73v144A4.48,4.48,0,0,0,8.57,158.67Z"/><path class="cls-2" d="M195,187.9a.68.68,0,0,1-.2,0L12.1,156.42l-.23-.07c-.95-.36-2.72-1-2.72-3.1V12.11a3.17,3.17,0,0,1,3.16-3.18H376.7a3.18,3.18,0,0,1,3.16,3.18V153.25c0,2-1.77,2.72-2.72,3.1l-.24.07L195.22,187.88A.75.75,0,0,1,195,187.9ZM12.63,154,195,185.45,376.36,154c1.07-.43,1.07-.6,1.07-.79V12.11a.74.74,0,0,0-.73-.75H12.31a.74.74,0,0,0-.73.75V153.25C11.58,153.46,11.58,153.63,12.63,154Zm364.07,1.18h0Z"/><path class="cls-2" d="M202.75,75l-.65-2.16h-3.79L197.67,75h-3l3.91-11.25H202L205.88,75Zm-2.54-8.45-1.16,3.88h2.31Z"/><path class="cls-2" d="M207.16,75V63.73h4.43a5.86,5.86,0,0,1,4.23,1.4,5.44,5.44,0,0,1,1.45,4.1,5.66,5.66,0,0,1-1.52,4.26A6,6,0,0,1,211.41,75Zm4.3-2.55c1.79,0,2.68-1,2.68-3.11a3.56,3.56,0,0,0-.62-2.29,2.34,2.34,0,0,0-1.9-.75h-1.44v6.15Z"/><path class="cls-2" d="M225.94,75l-4.05-6.44V75H219V63.73h2.65l4.05,6.44V63.73h2.86V75Z"/><path class="cls-2" d="M235.83,75.26a5.78,5.78,0,0,1-3-.71,4.6,4.6,0,0,1-1.88-2,7,7,0,0,1-.65-3.13A6.17,6.17,0,0,1,231.81,65a5.36,5.36,0,0,1,4.1-1.57,5.83,5.83,0,0,1,3,.71,4.6,4.6,0,0,1,1.88,2,7,7,0,0,1,.65,3.13,6.17,6.17,0,0,1-1.48,4.38A5.36,5.36,0,0,1,235.83,75.26Zm0-2.6a2.12,2.12,0,0,0,1.81-.83,4.24,4.24,0,0,0,.6-2.48c0-2.2-.8-3.3-2.39-3.3a2.09,2.09,0,0,0-1.81.83,5.4,5.4,0,0,0,0,5A2.09,2.09,0,0,0,235.86,72.66Z"/><path class="cls-2" d="M253.19,70.87a4.48,4.48,0,0,1-1.45,3.23,5.19,5.19,0,0,1-3.54,1.16,5.1,5.1,0,0,1-4-1.53,6.1,6.1,0,0,1-1.41-4.31A6.29,6.29,0,0,1,244.27,65a5.12,5.12,0,0,1,4-1.58,4.84,4.84,0,0,1,3.21,1,4.68,4.68,0,0,1,1.53,3l-3,.34a2.51,2.51,0,0,0-.62-1.31,1.7,1.7,0,0,0-1.21-.4c-1.44,0-2.16,1.09-2.16,3.29s.73,3.32,2.19,3.32a1.78,1.78,0,0,0,1.29-.45,2.2,2.2,0,0,0,.6-1.34Z"/><path class="cls-2" d="M258,75V63.73h4.21a5.18,5.18,0,0,1,3.38.93,3.45,3.45,0,0,1,1.12,2.82q0,3.84-4.47,3.84h-1.31V75Zm4.22-6.07a2,2,0,0,0,1.29-.34,1.3,1.3,0,0,0,.4-1.07,1.28,1.28,0,0,0-.39-1.06,2.13,2.13,0,0,0-1.31-.32h-1.28v2.79Z"/><path class="cls-2" d="M274.68,75l-1.84-3.88H271.2V75h-2.89V63.73h4.45a5.24,5.24,0,0,1,3.34.91,3.15,3.15,0,0,1,1.15,2.65,4.14,4.14,0,0,1-.43,1.91,3.2,3.2,0,0,1-1.24,1.29l2.3,4.49Zm-2-6.22a1.88,1.88,0,0,0,1.26-.34,1.27,1.27,0,0,0,.39-1,1.18,1.18,0,0,0-.43-1,2.25,2.25,0,0,0-1.32-.32H271.2v2.7Z"/><path class="cls-2" d="M284,75.26a5.78,5.78,0,0,1-3-.71,4.6,4.6,0,0,1-1.88-2,7,7,0,0,1-.65-3.13A6.13,6.13,0,0,1,280,65a5.35,5.35,0,0,1,4.1-1.57,5.83,5.83,0,0,1,3,.71,4.6,4.6,0,0,1,1.88,2,7,7,0,0,1,.65,3.13,6.13,6.13,0,0,1-1.49,4.38A5.33,5.33,0,0,1,284,75.26Zm0-2.6a2.08,2.08,0,0,0,1.8-.83,4.16,4.16,0,0,0,.61-2.48c0-2.2-.8-3.3-2.39-3.3a2.09,2.09,0,0,0-1.81.83,5.4,5.4,0,0,0,0,5A2.09,2.09,0,0,0,284,72.66Z"/><path class="cls-2" d="M294.7,75V63.73h3v8.68h5L302.44,75Z"/><path class="cls-2" d="M304.09,75V63.73h8.05v2.49H307V68h4.79V70.5H307v2h5.43L312.22,75Z"/><path class="cls-2" d="M321.48,75l-.64-2.16H317L316.41,75h-3l3.91-11.25h3.43L324.62,75ZM319,66.53l-1.17,3.88h2.32Z"/><path class="cls-2" d="M332.42,71h-1.8V68.55h4.58v5.12A6.7,6.7,0,0,1,333,74.85a8.1,8.1,0,0,1-2.61.41,5.33,5.33,0,0,1-4.08-1.52,6.07,6.07,0,0,1-1.43-4.32,7.31,7.31,0,0,1,.66-3.24,4.57,4.57,0,0,1,1.89-2,5.87,5.87,0,0,1,2.92-.69,5.12,5.12,0,0,1,3.22,1,4.13,4.13,0,0,1,1.52,2.69l-3,.3a1.82,1.82,0,0,0-.59-1.06A1.76,1.76,0,0,0,330.3,66a2,2,0,0,0-1.73.83,4.44,4.44,0,0,0-.57,2.51,4.18,4.18,0,0,0,.63,2.57,2.43,2.43,0,0,0,2,.8,3.79,3.79,0,0,0,1.77-.41Z"/><path class="cls-2" d="M343.38,63.73h3v6.59q0,4.94-4.78,4.94c-3.16,0-4.73-1.65-4.73-4.94V63.73h3v6.7a2.85,2.85,0,0,0,.41,1.7,1.6,1.6,0,0,0,1.33.53,1.57,1.57,0,0,0,1.32-.53,2.85,2.85,0,0,0,.41-1.7Z"/><path class="cls-2" d="M348.34,75V63.73h8.05v2.49h-5.1V68h4.79V70.5h-4.79v2h5.43L356.47,75Z"/><path class="cls-2" d="M202.84,56.73a4.37,4.37,0,0,1-3.16,1.09q-4.6,0-4.6-4.38a6.46,6.46,0,0,1,.24-1.66,6.62,6.62,0,0,1,.65-1.61l2.55.75a7.12,7.12,0,0,0-.48,1.23,4.65,4.65,0,0,0-.17,1.16c0,1.36.56,2,1.67,2a1.4,1.4,0,0,0,1.18-.48,2.54,2.54,0,0,0,.37-1.53v-8H204v5.79h2.08V53.7H204A4,4,0,0,1,202.84,56.73Zm-4.68-15.07h2.41v2.23h-2.41Z"/><path class="cls-2" d="M205,55.08h2.21v2.09H205Zm.51-4h2.08V45.32h2.88v5.79h2.07V53.7h-7Zm2.67,4h2.2v2.09h-2.2Z"/><path class="cls-2" d="M212.08,51.11h2.1a3.2,3.2,0,0,1-.94-2.38,3.51,3.51,0,0,1,.51-1.85,3.65,3.65,0,0,1,1.46-1.34,4.66,4.66,0,0,1,2.2-.49,4.07,4.07,0,0,1,3,1.06,4.26,4.26,0,0,1,1,3.09v4.5h-9.4Zm6.59-2.2a1.7,1.7,0,0,0-.29-1.1,1.27,1.27,0,0,0-1-.33,1.17,1.17,0,0,0-1,.44,2,2,0,0,0-.34,1.23,2,2,0,0,0,.5,1.49,2.19,2.19,0,0,0,1.55.47h.54Zm-2.42-7.25h2.41v2.23h-2.41Z"/><path class="cls-2" d="M226.47,54.59a3.44,3.44,0,0,1-.76,2.42,3,3,0,0,1-2.27.83,7.91,7.91,0,0,1-2.13-.34l.41-2.2a5.12,5.12,0,0,0,.92.14c.64,0,1-.3,1-.91V45.32h2.87v5.79h2V53.7h-2Z"/><path class="cls-2" d="M227.5,41.78h2.23v2.11H227.5Zm.42,9.33H230V45.32h2.88v5.79H235V53.7h-7Zm2.78-9.33h2.21v2.11H230.7Z"/><path class="cls-2" d="M234.46,51.11h5.9V49.36a2.66,2.66,0,0,0-.27-1.4,1,1,0,0,0-.91-.41,1.22,1.22,0,0,0-.84.26,1.66,1.66,0,0,0-.4,1l-2.8-.31a4,4,0,0,1,1.27-2.5,5.13,5.13,0,0,1,5.82.24,4.41,4.41,0,0,1,1,3.18v1.72h2V53.7h-10.8Z"/><path class="cls-2" d="M244.75,51.11h2V49.24a4.27,4.27,0,0,1,1.05-3.12,4,4,0,0,1,3-1.07,4.75,4.75,0,0,1,2.12.47A3.7,3.7,0,0,1,255,48.91a2.91,2.91,0,0,1-1,2.22h2.15V53.7H244.75Zm5.38,0a2.22,2.22,0,0,0,1.56-.47,2,2,0,0,0,.49-1.49,1.94,1.94,0,0,0-.34-1.23,1.17,1.17,0,0,0-1-.44,1.26,1.26,0,0,0-1,.33,1.69,1.69,0,0,0-.3,1.12v2.18Z"/><path class="cls-2" d="M255.71,51.11h2.07V41.54h2.88v9.57h2.08V53.7h-7Z"/><path class="cls-2" d="M262.23,51.11h2.08V41.54h2.88V53.7h-5Z"/><path class="cls-2" d="M273.67,52.66a4.09,4.09,0,0,1-1.2-3.27,4.18,4.18,0,0,1,.52-2.11,3.68,3.68,0,0,1,1.53-1.47,5.87,5.87,0,0,1,2.43-.63l.34,2.49a2.65,2.65,0,0,0-1.5.52,1.55,1.55,0,0,0-.44,1.22c0,1.13.63,1.7,1.9,1.7h4.91V41.54H285V53.7h-7.6A5.7,5.7,0,0,1,273.67,52.66Zm4.37-6.1h.35v-.75a1.3,1.3,0,0,1,.35-1,1.38,1.38,0,0,1,1-.35,1.44,1.44,0,0,1,.95.29,1.53,1.53,0,0,1,.43.94l-.89.12c0-.33-.19-.5-.44-.5s-.48.19-.48.57v.64h1.79v.9H278Z"/><path class="cls-2" d="M290.88,57.94a3.76,3.76,0,0,1-4.15-3.54h2.93a1.54,1.54,0,0,0,.4.88,1.19,1.19,0,0,0,.84.26,1.24,1.24,0,0,0,1.06-.42,2.42,2.42,0,0,0,.32-1.42c-3.61,0-5.42-1.53-5.42-4.48a4.6,4.6,0,0,1,.5-2.17,3.69,3.69,0,0,1,1.45-1.48,4.51,4.51,0,0,1,2.23-.52,4,4,0,0,1,3,1.07,4.27,4.27,0,0,1,1.05,3.12v1.87h2V53.7h-2a3.72,3.72,0,0,1-4.23,4.24Zm1.42-9a1.69,1.69,0,0,0-.3-1.12,1.27,1.27,0,0,0-1-.33,1.15,1.15,0,0,0-1,.44,1.94,1.94,0,0,0-.34,1.23,2,2,0,0,0,.49,1.48,2.16,2.16,0,0,0,1.55.48h.55Z"/><path class="cls-2" d="M296.62,51.11h2.08V47.75a3.8,3.8,0,0,0-.43-1.85l2.64-1a3.16,3.16,0,0,1,.51,1.1,6,6,0,0,1,.16,1.52V53.7h-5Zm2.17-9.45h2.4v2.23h-2.4Z"/><path class="cls-2" d="M303,51.11h5.23v-1c0-1.6-.69-2.4-2.08-2.4a5.35,5.35,0,0,0-1.95.44l-.74-2.37a7.36,7.36,0,0,1,1.44-.42,8.53,8.53,0,0,1,1.58-.15,5.13,5.13,0,0,1,2.39.54,4,4,0,0,1,1.65,1.58,4.73,4.73,0,0,1,.59,2.39v4H303Z"/><path class="cls-2" d="M312.86,39.7h.35V39a1.3,1.3,0,0,1,.35-1,1.33,1.33,0,0,1,1-.35,1.34,1.34,0,0,1,.94.29,1.46,1.46,0,0,1,.44.93l-.89.12c0-.33-.19-.49-.44-.49s-.48.19-.48.56v.65h1.79v.9h-3.06Zm.08,1.84h2.88V53.7h-2.88Z"/><path class="cls-2" d="M328,46.1a3.63,3.63,0,0,1,2.42-.78h1.83v2.59H331a1.32,1.32,0,0,0-.76.19.64.64,0,0,0-.28.54V53.7a4,4,0,0,1-1.13,3,4.37,4.37,0,0,1-3.16,1.09q-4.6,0-4.6-4.38a6.46,6.46,0,0,1,.24-1.66,6.62,6.62,0,0,1,.65-1.61l2.55.75a7.12,7.12,0,0,0-.48,1.23,4.65,4.65,0,0,0-.17,1.16c0,1.36.56,2,1.67,2a1.4,1.4,0,0,0,1.18-.48,2.54,2.54,0,0,0,.37-1.53V48.18A2.61,2.61,0,0,1,328,46.1Zm-5.16,13h2.22v2.1h-2.22Zm3.19,0h2.19v2.1h-2.19Z"/><path class="cls-2" d="M333,55.44c.64,0,1-.3,1-.91V45.32h2.88v9.27a3.45,3.45,0,0,1-.77,2.42,2.94,2.94,0,0,1-2.26.83,7.8,7.8,0,0,1-2.13-.34l.4-2.2A5.12,5.12,0,0,0,333,55.44Z"/><path class="cls-2" d="M344,53.7c-3.61,0-5.42-1.53-5.42-4.48a4.49,4.49,0,0,1,.51-2.17,3.66,3.66,0,0,1,1.44-1.48,4.56,4.56,0,0,1,2.23-.52,4,4,0,0,1,3,1.07,4.27,4.27,0,0,1,1,3.12V53.7a3.72,3.72,0,0,1-4.22,4.24,3.77,3.77,0,0,1-4.16-3.54h2.93a1.61,1.61,0,0,0,.4.88,1.22,1.22,0,0,0,.84.26,1.26,1.26,0,0,0,1.07-.42A2.43,2.43,0,0,0,344,53.7Zm0-4.77a1.69,1.69,0,0,0-.3-1.12,1.26,1.26,0,0,0-1-.33,1.17,1.17,0,0,0-1,.44,1.94,1.94,0,0,0-.34,1.23,2,2,0,0,0,.49,1.48,2.16,2.16,0,0,0,1.55.48H344Z"/><path class="cls-2" d="M348.29,51.11h5.23v-1c0-1.6-.7-2.4-2.08-2.4a5.39,5.39,0,0,0-2,.44l-.73-2.37a7.17,7.17,0,0,1,1.44-.42,8.35,8.35,0,0,1,1.57-.15,5.17,5.17,0,0,1,2.4.54,4,4,0,0,1,1.64,1.58,4.63,4.63,0,0,1,.59,2.39v4h-8.1Z"/><rect class="cls-1" x="253.68" y="86.93" width="41" height="63.23"/><path class="cls-2" d="M282.38,124.8h7.95a17,17,0,0,0-12.81-19.34c1.82.51,9.83,4.28,7.82,13.88a11.08,11.08,0,0,1-3,5.46"/><path class="cls-2" d="M257.78,91.62v33.17h3.47a20,20,0,0,0,3.74-.14c5-.73,9.5-4.85,10-8.49a7.5,7.5,0,0,0-6-9,1.71,1.71,0,0,1-.26-.07,17.08,17.08,0,0,1-4-.43,2.12,2.12,0,0,0-.57,2.21,5.2,5.2,0,0,1-.81-5.51,8.38,8.38,0,0,1,3-3l.06-.06a13.39,13.39,0,0,1,4.25-3.11,16.21,16.21,0,0,1,5.09-1.41,16.78,16.78,0,0,1,14.79,6.6V91.62Z"/><path class="cls-2" d="M281.49,99.68a16.52,16.52,0,0,1,9.09,4.42v3a16.61,16.61,0,0,0-13.53-6.59,2.2,2.2,0,0,1,0,1,2.41,2.41,0,0,1-2.91,1.8,2.52,2.52,0,0,1-2-1.88,14.88,14.88,0,0,0-2.29,1,15.82,15.82,0,0,1,11.57-2.76"/><path class="cls-2" d="M260.23,139.21h1.29l2.43,6.6H262.5l-.52-1.52h-2.27l-.51,1.52h-1.4Zm1.4,3.94-.79-2.37-.78,2.37Z"/><path class="cls-2" d="M264.74,139.21h2.42a3.14,3.14,0,0,1,2.32.82,3.31,3.31,0,0,1,.83,2.44,4.28,4.28,0,0,1-.23,1.45,2.87,2.87,0,0,1-.67,1,2.65,2.65,0,0,1-1.06.64,4.46,4.46,0,0,1-1.42.21h-2.19Zm2.22,5.43a2.23,2.23,0,0,0,.9-.16,1.41,1.41,0,0,0,.6-.43,1.81,1.81,0,0,0,.34-.68,3.1,3.1,0,0,0,.11-.89,3.88,3.88,0,0,0-.09-.87,1.76,1.76,0,0,0-.31-.66,1.41,1.41,0,0,0-.54-.42,2,2,0,0,0-.81-.15h-1.07v4.26Z"/><polygon class="cls-2" points="271.38 139.21 272.59 139.21 275.26 143.54 275.26 139.21 276.57 139.21 276.57 145.81 275.37 145.81 272.69 141.52 272.69 145.81 271.38 145.81 271.38 139.21"/><path class="cls-2" d="M280.8,146a3.31,3.31,0,0,1-1.3-.24,2.6,2.6,0,0,1-1-.7,3,3,0,0,1-.61-1.09,4.82,4.82,0,0,1,0-2.88,3.1,3.1,0,0,1,.61-1.1,2.73,2.73,0,0,1,1-.69,3.59,3.59,0,0,1,2.58,0,2.53,2.53,0,0,1,1,.69,3.08,3.08,0,0,1,.6,1.1,5.16,5.16,0,0,1,0,2.88,3.1,3.1,0,0,1-.6,1.09,2.52,2.52,0,0,1-1,.7,3.31,3.31,0,0,1-1.3.24m0-1.19a1.44,1.44,0,0,0,1.27-.59,3.61,3.61,0,0,0,0-3.38,1.64,1.64,0,0,0-2.54,0,3.61,3.61,0,0,0,0,3.38,1.44,1.44,0,0,0,1.27.59"/><path class="cls-2" d="M290.47,143.53a3.07,3.07,0,0,1-.24,1,2.37,2.37,0,0,1-.54.78,2.24,2.24,0,0,1-.83.51,3.12,3.12,0,0,1-1.15.19,3.06,3.06,0,0,1-1.29-.25,2.64,2.64,0,0,1-.94-.7,3,3,0,0,1-.56-1.1,4.88,4.88,0,0,1-.19-1.42,4.56,4.56,0,0,1,.2-1.44,3.24,3.24,0,0,1,.6-1.1,2.62,2.62,0,0,1,1-.69,3.1,3.1,0,0,1,1.25-.24,3.13,3.13,0,0,1,1.07.16,1.89,1.89,0,0,1,.77.45,2.43,2.43,0,0,1,.51.71,4.15,4.15,0,0,1,.28.94l-1.34.17a1.86,1.86,0,0,0-.39-.91,1.13,1.13,0,0,0-.9-.34,1.35,1.35,0,0,0-1.19.6,3.08,3.08,0,0,0-.4,1.69,2.81,2.81,0,0,0,.43,1.69,1.35,1.35,0,0,0,1.16.59,1.17,1.17,0,0,0,.92-.32,1.68,1.68,0,0,0,.37-.94Z"/><path class="cls-2" d="M264.74,135v-5.85h1.35v7.06h-5.63a2.91,2.91,0,0,1-2-.59,2.35,2.35,0,0,1-.65-1.81,2.52,2.52,0,0,1,.27-1.19,2,2,0,0,1,.8-.81,2.87,2.87,0,0,1,1.27-.34l.15,1.18a1.48,1.48,0,0,0-.93.32,1.11,1.11,0,0,0-.28.84,1.18,1.18,0,0,0,.31.91,1.47,1.47,0,0,0,1,.28Zm-1.25-3v.46h-1.73V132H262v-.3a.68.68,0,0,1,.75-.74.79.79,0,0,1,.52.15.93.93,0,0,1,.22.52l-.44.06a.38.38,0,0,0-.08-.23.26.26,0,0,0-.19-.07c-.2,0-.3.12-.3.35V132Z"/><path class="cls-2" d="M279,131.27V135h-7.41v-1.4a2.44,2.44,0,0,0-.54-1.73,2.08,2.08,0,0,0-1.63-.58,2.17,2.17,0,0,0-1.63.62,2.28,2.28,0,0,0-.61,1.66,2.59,2.59,0,0,0,.76,2,3.17,3.17,0,0,0,2.16.66h.18v.16a1.79,1.79,0,0,1-.2,1l.67,1.06a1.76,1.76,0,0,0,.3-.24,3.22,3.22,0,0,0,.54-2h8.72v-4.92ZM270.26,135h-.41a1.27,1.27,0,0,1-1.38-1.43,1.32,1.32,0,0,1,.24-.85.8.8,0,0,1,.68-.3,1.06,1.06,0,0,1,.52.11.74.74,0,0,1,.27.41,4.89,4.89,0,0,1,.08,1Z"/><rect class="cls-2" x="278.98" y="129.27" width="1.31" height="1.33"/><path class="cls-2" d="M286.48,135v-.71a2.24,2.24,0,0,0-.33-1.35,1.22,1.22,0,0,0-1-.43,3.15,3.15,0,0,0-1,.18l-.31-1.18a4.56,4.56,0,0,1,1.4-.22,2.44,2.44,0,0,1,1.91.74,3.12,3.12,0,0,1,.66,2.13v2.05h-6.51V135Z"/><path class="cls-2" d="M290.47,128.81v.46h-1.72v-.46H289v-.3a.74.74,0,0,1,.2-.55.72.72,0,0,1,.55-.19.79.79,0,0,1,.52.15.93.93,0,0,1,.22.52l-.44.06a.38.38,0,0,0-.08-.23.25.25,0,0,0-.19-.06c-.2,0-.3.11-.3.34v.26Z"/><rect class="cls-2" x="288.91" y="129.8" width="1.31" height="6.39"/><rect class="cls-2" x="194.77" y="108.7" width="48.15" height="2.36"/><rect class="cls-2" x="308.1" y="108.7" width="48.16" height="2.36"/><circle class="cls-1" cx="101.1" cy="90.56" r="66.17"/><circle class="cls-1" cx="101.05" cy="90.01" r="61.86"/><path class="cls-3" d="M161,82.05c.6-1,1.27-2.16,1.94-3.4a62.85,62.85,0,0,0-12.46-27.11c-1.24-.13-2.43-.23-3.45-.3A60.24,60.24,0,0,1,161,82.05Z"/><path class="cls-4" d="M53.4,53.44c-2,1.68-4.69,4.07-7.15,6.28a62.58,62.58,0,0,0-6.17,15.39c.79.34,1.58.66,2.31,1A60.23,60.23,0,0,1,53.4,53.44Z"/><path class="cls-4" d="M161.56,91.1A60,60,0,0,1,151.48,124a25.12,25.12,0,0,1,1.29,2.51A62.59,62.59,0,0,0,163.72,97C163,95,162.27,92.9,161.56,91.1Z"/><path class="cls-5" d="M164,90.56a63.2,63.2,0,0,0-1.13-11.91c-.67,1.24-1.34,2.42-1.94,3.4v0a8.81,8.81,0,0,1-2.35,2.86,22,22,0,0,1,2.95,6.48v-.3c.71,1.8,1.47,3.86,2.15,5.84Q164,93.8,164,90.56Z"/><path class="cls-5" d="M155.61,81.18a22.9,22.9,0,0,1,3,3.75c-4.48,2.89-15.29,7.26-15.29,7.26-.1-.45-3.75-11.36-3.75-11.36s2.76-9.36,2.75-9.76A72,72,0,0,1,155.61,81.18Z"/><path class="cls-6" d="M151.48,124v0a17,17,0,0,0-4.17-5c-.14,2.72-1.46,12-8.23,18.59.17-.14-5.26,5.55-8.14,8.38a63.45,63.45,0,0,0,21.84-19.5A25.12,25.12,0,0,0,151.48,124Z"/><path class="cls-4" d="M143.33,92.19c.95,4.42,4.28,15.58,4,26.81-5.72-3.75-12.26-7.68-18-11.44,0,0,4.56-10.63,4.93-11S142.72,92.52,143.33,92.19Z"/><path class="cls-7" d="M147,51.24c1,.07,2.21.17,3.45.3A63.68,63.68,0,0,0,141,41.89a62.7,62.7,0,0,0-26.24-12.77c-.43.84-.83,1.64-1.14,2.28a60.33,60.33,0,0,1,29,15.26,11.24,11.24,0,0,1,1.57,4.59A20.53,20.53,0,0,1,147,51.24Z"/><path class="cls-3" d="M144.19,51.25c.72,6.76-.7,14.52-1.86,19.82-.23-.25-8.77-5-9.21-5.49s-5.1-9.94-5.21-10.11C132.26,53.94,141.34,51.35,144.19,51.25Z"/><path class="cls-3" d="M127.89,55.43l0,0c-1,.21-8.7,3-9.85,3s-8.76-3.38-11-4.06c0,0,3.42-12.2,5-18.91C118.84,41.37,123.32,48.28,127.89,55.43Z"/><path class="cls-6" d="M119.7,102.92c.38,0,9.58,4.63,9.61,4.64-3.84,10.65-15.45,29.31-15.52,29.31-.71-6.06-3.36-22.65-5.51-29.1l0,0C111.91,106.19,119.31,102.93,119.7,102.92Z"/><path class="cls-8" d="M115.09,149.39c-.3-4.3-.67-8.94-1.3-12.52-.19.18-8.35,10.29-16.12,14.06q.47,0,0,0l-.4.24c-1,.63-2.12,1.29-3.25,1.93a63.11,63.11,0,0,0,7,.4c1.27,0,2.54,0,3.79-.12a62.25,62.25,0,0,0,26-7.41c2.88-2.83,6.09-6.07,8.42-8.61A60.38,60.38,0,0,1,115.09,149.39Zm0,0-.63.14.65-.15Z"/><path class="cls-3" d="M114.72,29.12a62.4,62.4,0,0,0-13.62-1.49q-3.1,0-6.13.3c2.62.75,5.28,1.61,7,2.18h-.1a27.63,27.63,0,0,1,10.22,5.44,12.46,12.46,0,0,1,1.55-4.14h0C113.89,30.76,114.29,30,114.72,29.12Z"/><path class="cls-6" d="M104.05,96c.14.17,3,8.26,4.23,11.8-.11,0-30.27,12.32-30.75,12.5,6.5-13.18,9.91-19.31,14.85-29,.25.11.45.2.65.27C96.46,92.89,103.88,95.75,104.05,96Z"/><path class="cls-5" d="M107.11,54.45c-.61,2.73-2.67,8.95-3.19,9.49s-9.28,4.12-11.73,5C92.19,68.9,77.91,47,77.91,47a120.35,120.35,0,0,1,14,2.74A134.61,134.61,0,0,1,107.11,54.45Z"/><path class="cls-4" d="M97.34,79.88c0,.44-2.55,6.72-4.89,11.27a1.11,1.11,0,0,0-.07.16h0c-5.12-2.38-30-9.22-30.28-9.34,10.68-5.55,22.19-9.72,30.1-13C93.49,71.31,97.3,79.43,97.34,79.88Z"/><path class="cls-9" d="M75.73,35.68h0A60,60,0,0,1,101.1,30.1H102c-1.7-.57-4.35-1.43-7-2.18a62,62,0,0,0-17.62,4.35,63.38,63.38,0,0,0-31.1,27.44c2.46-2.21,5.14-4.6,7.15-6.28l.16-.2c2.28-1.89,7.67-5.21,11.12-6.18,4.43-1.23,13.23,0,13.23,0a49.34,49.34,0,0,1-3.45-4.8,3,3,0,0,1-.25-2.54A17.86,17.86,0,0,1,75.73,35.68Z"/><path class="cls-8" d="M77.52,120.27s-2.77,5.44-4,8.67a3.52,3.52,0,0,0-.19,1.7c.4,2.62,1.87,7.69,2,8.2-.48-.42-6.24-5.31-8.46-8.4A12.08,12.08,0,0,0,65,128.69a50.36,50.36,0,0,1-8.6-8.67c3.35,1.09,6.21,2.17,8.44,2.85a8.28,8.28,0,0,0,5,0A65.67,65.67,0,0,0,77.52,120.27Z"/><path class="cls-6" d="M42.39,76.07h0c-.73-.3-1.52-.62-2.31-1a62.52,62.52,0,0,0-1.93,15.45c0,.71,0,1.41,0,2.11a62.48,62.48,0,0,0,.67,7.29l2.06-2.1.13-.13s3.87-3.68,5-4.69l.2-.18A78.49,78.49,0,0,1,53,87.65c2.64-1.82,8.7-5.44,9.08-5.68C55.64,80,48.71,78.38,42.39,76.07Z"/><path class="cls-10" d="M96.29,150.83a41.12,41.12,0,0,1-10.8-4.63c-3.59-2.18-6.83-4.9-10.22-7.36a33.67,33.67,0,0,0,3.32,7.49c.08.15.16.3.25.45A60.8,60.8,0,0,1,45.11,113.4,35.77,35.77,0,0,0,56.39,120c-.21-.26-7-8.42-10.74-14.27-1.72-2.67-3.48-4.86-4.57-7.78a1.57,1.57,0,0,1-.07-.2L38.86,100a62.31,62.31,0,0,0,2.53,10.54,63.27,63.27,0,0,0,39.35,39.62,62,62,0,0,0,13.31,3c1.13-.64,2.23-1.3,3.25-1.93l.4-.24Z"/></g></g></svg>